<?xml version="1.0" encoding="utf-8"?><svg xmlns="http://www.w3.org/2000/svg" xmlns:xlink="http://www.w3.org/1999/xlink"><symbol viewBox="0 0 32 32" id="bubble"><path d="M16 2c8.837 0 16 5.82 16 13s-7.163 13-16 13a19.66 19.66 0 0 1-2.495-.158C10.068 31.279 5.966 31.895 2 31.986v-.841C4.142 30.096 6 28.184 6 26c0-.305-.024-.604-.068-.897C2.313 22.72 0 19.079 0 15 0 7.82 7.163 2 16 2z"/></symbol><symbol viewBox="0 0 32 32" id="forward"><path d="M8.192 0C4.638 6.439 4.039 16.259 18 15.932V8l12 12-12 12v-7.762C1.282 24.674-.58 9.481 8.192 0z"/></symbol><symbol viewBox="0 0 32 32" id="home"><path d="M32 18.451L16 6.031 0 18.451v-5.064L16 .967l16 12.42zM28 18v12h-8v-8h-8v8H4V18l12-9z"/></symbol><symbol viewBox="0 0 32 32" id="music"><path d="M30 0h2v23c0 2.761-3.134 5-7 5s-7-2.239-7-5 3.134-5 7-5c1.959 0 3.729.575 5 1.501V8l-16 3.556V27c0 2.761-3.134 5-7 5s-7-2.239-7-5 3.134-5 7-5c1.959 0 3.729.575 5 1.501V4l18-4z"/></symbol><symbol viewBox="0 0 32 32" id="play"><path d="M30.662 5.003C26.174 4.358 21.214 4 16 4S5.826 4.358 1.338 5.003C.478 8.369 0 12.089 0 16s.477 7.63 1.338 10.997C5.827 27.642 10.786 28 16 28s10.174-.358 14.662-1.003C31.522 23.631 32 19.911 32 16s-.477-7.63-1.338-10.997zM12 22V10l10 6-10 6z"/></symbol><symbol viewBox="0 0 32 32" id="reply"><path d="M14 24.238V32L2 20 14 8v7.932C27.961 16.259 27.362 6.439 23.808 0 32.58 9.482 30.717 24.674 14 24.238z"/></symbol></svg>